<svg viewBox="0 0 1496 400" xmlns="http://www.w3.org/2000/svg"><g><g><g><g><g><line x1="40" y1="378" x2="35" y2="378" style="visibility: inherit;" fill="rgb(0, 0, 0)" stroke="rgb(204, 204, 204)" stroke-width="1px"></line><line x1="40" y1="324" x2="35" y2="324" style="visibility: inherit;" fill="rgb(0, 0, 0)" stroke="rgb(204, 204, 204)" stroke-width="1px"></line><line x1="40" y1="270" x2="35" y2="270" style="visibility: inherit;" fill="rgb(0, 0, 0)" stroke="rgb(204, 204, 204)" stroke-width="1px"></line><line x1="40" y1="216" x2="35" y2="216" style="visibility: inherit;" fill="rgb(0, 0, 0)" stroke="rgb(204, 204, 204)" stroke-width="1px"></line><line x1="40" y1="162" x2="35" y2="162" style="visibility: inherit;" fill="rgb(0, 0, 0)" stroke="rgb(204, 204, 204)" stroke-width="1px"></line><line x1="40" y1="108" x2="35" y2="108" style="visibility: inherit;" fill="rgb(0, 0, 0)" stroke="rgb(204, 204, 204)" stroke-width="1px"></line><line x1="40" y1="54" x2="35" y2="54" style="visibility: inherit;" fill="rgb(0, 0, 0)" stroke="rgb(204, 204, 204)" stroke-width="1px"></line><line x1="40" y1="0" x2="35" y2="0" style="visibility: inherit;" fill="rgb(0, 0, 0)" stroke="rgb(204, 204, 204)" stroke-width="1px"></line></g><g transform="translate(30, 0)"><text x="0" y="378" dx="0em" dy="0.3em" style="text-anchor: end; visibility: hidden; font-family: &quot;Helvetica Neue&quot;, sans-serif; font-size: 12px; font-weight: 200;" fill="rgb(50, 49, 63)" stroke="none" stroke-width="1px">70</text><text x="0" y="324" dx="0em" dy="0.3em" style="text-anchor: end; visibility: inherit; font-family: &quot;Helvetica Neue&quot;, sans-serif; font-size: 12px; font-weight: 200;" fill="rgb(50, 49, 63)" stroke="none" stroke-width="1px">75</text><text x="0" y="270" dx="0em" dy="0.3em" style="text-anchor: end; visibility: inherit; font-family: &quot;Helvetica Neue&quot;, sans-serif; font-size: 12px; font-weight: 200;" fill="rgb(50, 49, 63)" stroke="none" stroke-width="1px">80</text><text x="0" y="216" dx="0em" dy="0.3em" style="text-anchor: end; visibility: inherit; font-family: &quot;Helvetica Neue&quot;, sans-serif; font-size: 12px; font-weight: 200;" fill="rgb(50, 49, 63)" stroke="none" stroke-width="1px">85</text><text x="0" y="162" dx="0em" dy="0.3em" style="text-anchor: end; visibility: inherit; font-family: &quot;Helvetica Neue&quot;, sans-serif; font-size: 12px; font-weight: 200;" fill="rgb(50, 49, 63)" stroke="none" stroke-width="1px">90</text><text x="0" y="108" dx="0em" dy="0.3em" style="text-anchor: end; visibility: inherit; font-family: &quot;Helvetica Neue&quot;, sans-serif; font-size: 12px; font-weight: 200;" fill="rgb(50, 49, 63)" stroke="none" stroke-width="1px">95</text><text x="0" y="54" dx="0em" dy="0.3em" style="text-anchor: end; visibility: inherit; font-family: &quot;Helvetica Neue&quot;, sans-serif; font-size: 12px; font-weight: 200;" fill="rgb(50, 49, 63)" stroke="none" stroke-width="1px">100</text><text x="0" y="0" dx="0em" dy="0.3em" style="text-anchor: end; visibility: hidden; font-family: &quot;Helvetica Neue&quot;, sans-serif; font-size: 12px; font-weight: 200;" fill="rgb(50, 49, 63)" stroke="none" stroke-width="1px">105</text></g><line x1="40" y1="0" x2="40" y2="378" fill="rgb(0, 0, 0)" stroke="rgb(204, 204, 204)" stroke-width="1px"></line></g></g><g transform="translate(40, 0)" clip-path="url(#clip_0)"><clipPath id="clip_0"><rect width="1456" height="378"></rect></clipPath><g><g><g><line x1="0" y1="0" x2="0" y2="378" fill="rgb(0, 0, 0)" stroke="rgb(60, 60, 60)" stroke-width="1px" opacity="0.25"></line><line x1="132.36363636363637" y1="0" x2="132.36363636363637" y2="378" fill="rgb(0, 0, 0)" stroke="rgb(60, 60, 60)" stroke-width="1px" opacity="0.25"></line><line x1="264.72727272727275" y1="0" x2="264.72727272727275" y2="378" fill="rgb(0, 0, 0)" stroke="rgb(60, 60, 60)" stroke-width="1px" opacity="0.25"></line><line x1="397.09090909090907" y1="0" x2="397.09090909090907" y2="378" fill="rgb(0, 0, 0)" stroke="rgb(60, 60, 60)" stroke-width="1px" opacity="0.25"></line><line x1="529.4545454545455" y1="0" x2="529.4545454545455" y2="378" fill="rgb(0, 0, 0)" stroke="rgb(60, 60, 60)" stroke-width="1px" opacity="0.25"></line><line x1="661.8181818181818" y1="0" x2="661.8181818181818" y2="378" fill="rgb(0, 0, 0)" stroke="rgb(60, 60, 60)" stroke-width="1px" opacity="0.25"></line><line x1="794.1818181818181" y1="0" x2="794.1818181818181" y2="378" fill="rgb(0, 0, 0)" stroke="rgb(60, 60, 60)" stroke-width="1px" opacity="0.25"></line><line x1="926.5454545454545" y1="0" x2="926.5454545454545" y2="378" fill="rgb(0, 0, 0)" stroke="rgb(60, 60, 60)" stroke-width="1px" opacity="0.25"></line><line x1="1058.909090909091" y1="0" x2="1058.909090909091" y2="378" fill="rgb(0, 0, 0)" stroke="rgb(60, 60, 60)" stroke-width="1px" opacity="0.25"></line><line x1="1191.2727272727273" y1="0" x2="1191.2727272727273" y2="378" fill="rgb(0, 0, 0)" stroke="rgb(60, 60, 60)" stroke-width="1px" opacity="0.25"></line><line x1="1323.6363636363635" y1="0" x2="1323.6363636363635" y2="378" fill="rgb(0, 0, 0)" stroke="rgb(60, 60, 60)" stroke-width="1px" opacity="0.25"></line><line x1="1456" y1="0" x2="1456" y2="378" fill="rgb(0, 0, 0)" stroke="rgb(60, 60, 60)" stroke-width="1px" opacity="0.25"></line></g><g><line x1="0" y1="378" x2="1456" y2="378" fill="rgb(0, 0, 0)" stroke="rgb(60, 60, 60)" stroke-width="1px" opacity="0.25"></line><line x1="0" y1="324" x2="1456" y2="324" fill="rgb(0, 0, 0)" stroke="rgb(60, 60, 60)" stroke-width="1px" opacity="0.25"></line><line x1="0" y1="270" x2="1456" y2="270" fill="rgb(0, 0, 0)" stroke="rgb(60, 60, 60)" stroke-width="1px" opacity="0.25"></line><line x1="0" y1="216" x2="1456" y2="216" fill="rgb(0, 0, 0)" stroke="rgb(60, 60, 60)" stroke-width="1px" opacity="0.25"></line><line x1="0" y1="162" x2="1456" y2="162" fill="rgb(0, 0, 0)" stroke="rgb(60, 60, 60)" stroke-width="1px" opacity="0.25"></line><line x1="0" y1="108" x2="1456" y2="108" fill="rgb(0, 0, 0)" stroke="rgb(60, 60, 60)" stroke-width="1px" opacity="0.25"></line><line x1="0" y1="54" x2="1456" y2="54" fill="rgb(0, 0, 0)" stroke="rgb(60, 60, 60)" stroke-width="1px" opacity="0.25"></line><line x1="0" y1="0" x2="1456" y2="0" fill="rgb(0, 0, 0)" stroke="rgb(60, 60, 60)" stroke-width="1px" opacity="0.25"></line></g></g></g><g><g><line x1="0" y1="1134" x2="1456" y2="1134" fill="rgb(0, 0, 0)" stroke="rgb(153, 153, 153)" stroke-width="1.5px"></line></g></g><g><g><line x1="0" y1="0" x2="0" y2="378" fill="rgb(0, 0, 0)" stroke="rgb(153, 153, 153)" stroke-width="1.5px"></line></g></g><g><g><g><g><g><path stroke="rgb(51, 187, 238)" stroke-width="2px" d="M33.09090909090909,303.075L66.18181818181819,251.35313529968246L99.27272727272727,224.53393361617094L132.36363636363637,207.95582397685334L165.45454545454544,195.40127221662743L198.54545454545453,184.98374285549397L231.63636363636363,176.46991974650962L264.72727272727275,169.6768745492765L297.8181818181818,164.12012550191835L330.9090909090909,160.8492912252499L364,157.9239617258479L397.09090909090907,155.0932151162913L430.1818181818182,153.39871593624468L463.27272727272725,149.6272872968127L496.3636363636363,146.66399885975028L529.4545454545455,144.53580552091583L562.5454545454545,141.23393100729226L595.6363636363636,140.3332737254577L628.7272727272727,137.47080299142627L661.8181818181818,136.07743085096263L694.909090909091,134.45841640254076L728,132.75803405259902L761.090909090909,131.08980725706817L794.1818181818181,129.35988934082397L827.2727272727274,128.1059300394518L860.3636363636364,126.73254249732923L893.4545454545455,127.0155389716355L926.5454545454545,125.18732885208479L959.6363636363636,124.25239696676903L992.7272727272726,122.5304575747762L1025.818181818182,122.03726129585223L1058.909090909091,120.93134350590128L1092,119.56579944653652L1125.090909090909,118.20647303717885L1158.181818181818,118.25489700673353L1191.2727272727273,116.90695796552751L1224.3636363636365,117.5291747831672L1257.4545454545455,114.58149167536118L1290.5454545454545,114.05490818763747L1323.6363636363635,112.09196468534918" style="fill: none;" fill="none"></path></g><g><path stroke="rgb(204, 51, 17)" stroke-width="2px" d="M33.09090909090909,229.7159637451172L66.18181818181819,217.1610111236572L99.27272727272727,204.2808849101164L132.36363636363637,197.30806237389055L165.45454545454544,191.4093638561072L198.54545454545453,185.27792899503612L231.63636363636363,182.67632789819805L264.72727272727275,179.053735273263L297.8181818181818,176.57039104529625L330.9090909090909,172.4887372890663L364,170.4458307687272L397.09090909090907,169.8742608697732L430.1818181818182,170.22420302372842L463.27272727272725,170.30417921347208L496.3636363636363,168.10464961182285L529.4545454545455,167.39056194792775L562.5454545454545,166.31415496901315L595.6363636363636,165.36599800498723L628.7272727272727,164.8403443596661L661.8181818181818,164.61139428994412L694.909090909091,163.73958844529852L728,163.34614657027063L761.090909090909,160.69087620120553L794.1818181818181,162.85612411525923L827.2727272727274,164.6736796365183L860.3636363636364,162.43778551085296L893.4545454545455,161.57145459951792L926.5454545454545,160.40368258946378L959.6363636363636,159.61660135351673L992.7272727272726,161.73634677877737L1025.818181818182,160.84819344750474L1058.909090909091,160.92009893555382L1092,159.19205927881478L1125.090909090909,158.2416210381048L1158.181818181818,158.7945673589308L1191.2727272727273,157.5711324925834L1224.3636363636365,158.39227422719406L1257.4545454545455,158.06414871478566L1290.5454545454545,158.16967209043452L1323.6363636363635,159.572208529573" style="fill: none;" fill="none"></path></g><g><path stroke="rgb(0, 119, 187)" stroke-width="2px" d="M33.09090909090909,120.01495056152345L66.18181818181819,92.46654396057141L99.27272727272727,80.00403834751677L132.36363636363637,72.95486307705153L165.45454545454544,68.42250830645702L198.54545454545453,65.40158034426048L231.63636363636363,62.79292248181844L264.72727272727275,61.19286549229213L297.8181818181818,60.11386523418065L330.9090909090909,59.25613939213275L364,59.39520133149563L397.09090909090907,59.26183047958273L430.1818181818182,58.50611126600853L463.27272727272725,57.918206052598975L496.3636363636363,57.16056740124185L529.4545454545455,56.92228640265023L562.5454545454545,56.99537762169501L595.6363636363636,57.03922443430059L628.7272727272727,56.98454451219976L661.8181818181818,56.87072254580835L694.909090909091,56.74844402866103L728,55.8650679736441L761.090909090909,55.740020021254395L794.1818181818181,56.178000904479404L827.2727272727274,56.11680036869279L860.3636363636364,55.972073382541055L893.4545454545455,56.3442575940453L926.5454545454545,56.486554643810734L959.6363636363636,56.27493930011235L992.7272727272726,55.68895026692678L1025.818181818182,55.580363553955806L1058.909090909091,55.29919833460593L1092,55.751512430565526L1125.090909090909,55.725907457605956L1158.181818181818,55.521524695659366L1191.2727272727273,55.20990822238463L1224.3636363636365,55.3199647095023L1257.4545454545455,55.304985417442595L1290.5454545454545,55.377011026016646L1323.6363636363635,55.52820002401512" style="fill: none;" fill="none"></path></g><g><path stroke="rgb(255, 112, 67)" stroke-width="2px" d="M33.09090909090909,78.73200988769531L66.18181818181819,75.08700370788574L99.27272727272727,72.48344888492494L132.36363636363637,70.0940129336189L165.45454545454544,69.95260817073125L198.54545454545453,68.37980530571855L231.63636363636363,68.10665518525008L264.72727272727275,69.17800078688413L297.8181818181818,68.15084115950606L330.9090909090909,69.14934622910926L364,68.53057207155427L397.09090909090907,68.03087000224798L430.1818181818182,68.89965669706731L463.27272727272725,67.73408326308072L496.3636363636363,66.3870126303857L529.4545454545455,65.88165973918899L562.5454545454545,69.42402049568312L595.6363636363636,69.99369256539006L628.7272727272727,68.65052578190154L661.8181818181818,67.19668077129501L694.909090909091,65.9787922928927L728,64.42725495413674L761.090909090909,65.82916799889108L794.1818181818181,66.06550851100292L827.2727272727274,65.81849385745699L860.3636363636364,66.57751606625857L893.4545454545455,65.69370478010472L926.5454545454545,65.03382378119318L959.6363636363636,65.19948378287944L992.7272727272726,64.47810197548324L1025.818181818182,66.29165878912937L1058.909090909091,66.42938737428278L1092,66.77124694284714L1125.090909090909,66.19876133289966L1158.181818181818,66.28726339305814L1191.2727272727273,66.12435144235769L1224.3636363636365,66.45863064287391L1257.4545454545455,65.96798233898073L1290.5454545454545,65.67359335781089L1323.6363636363635,65.280946785646" style="fill: none;" fill="none"></path></g></g></g></g><g opacity="0.2"><g><g><g><path stroke="rgb(51, 187, 238)" stroke-width="2px" d="M33.09090909090909,303.075L66.18181818181819,220.3200164794922L99.27272727272727,198.7875L132.36363636363637,188.45996704101563L165.45454545454544,179.01004943847656L198.54545454545453,170.57254943847656L231.63636363636363,164.2950164794922L264.72727272727275,159.77254943847655L297.8181818181818,155.92499999999998L330.9090909090909,155.99248352050782L364,153.5625L397.09090909090907,150.8625L430.1818181818182,150.8625L463.27272727272725,143.97753295898437L496.3636363636363,142.22254943847656L529.4545454545455,141.34501647949222L562.5454545454545,136.2825164794922L595.6363636363636,138.98251647949218L628.7272727272727,133.17753295898436L661.8181818181818,133.98749999999998L694.909090909091,132.02998352050784L728,130.2075164794922L761.090909090909,128.5875L794.1818181818181,126.76503295898436L827.2727272727274,126.22500000000002L860.3636363636364,124.67246704101561L893.4545454545455,127.44003295898438L926.5454545454545,122.44501647949218L959.6363636363636,122.85L992.7272727272726,119.94754943847659L1025.818181818182,121.29746704101564L1058.909090909091,119.2724670410156L1092,117.51748352050782L1125.090909090909,116.1674835205078L1158.181818181818,118.32753295898436L1191.2727272727273,114.88504943847659L1224.3636363636365,118.46249999999998L1257.4545454545455,110.15996704101565L1290.5454545454545,113.26503295898436L1323.6363636363635,109.14754943847657" style="fill: none;" fill="none"></path></g><g><path stroke="rgb(204, 51, 17)" stroke-width="2px" d="M33.09090909090909,229.7159637451172L66.18181818181819,209.62803955078127L99.27272727272727,191.91596374511718L132.36363636363637,189.10802307128907L165.45454545454544,183.70802307128906L198.54545454545453,176.795947265625L231.63636363636363,178.95599670410155L264.72727272727275,173.77196044921877L297.8181818181818,172.90794067382814L330.9090909090909,166.4279571533203L364,167.4L397.09090909090907,169.0200164794922L430.1818181818182,170.7479736328125L463.27272727272725,170.42398681640626L496.3636363636363,164.8079406738281L529.4545454545455,166.31993408203127L562.5454545454545,164.7L595.6363636363636,163.94400329589845L628.7272727272727,164.05194396972655L661.8181818181818,164.2679901123047L694.909090909091,162.43192749023436L728,162.75599670410156L761.090909090909,156.70802307128906L794.1818181818181,166.10397033691407L827.2727272727274,167.4L860.3636363636364,159.0839538574219L893.4545454545455,160.27196044921877L926.5454545454545,158.65202636718752L959.6363636363636,158.43598022460938L992.7272727272726,164.91596374511718L1025.818181818182,159.51596374511718L1058.909090909091,161.02795715332033L1092,156.6L1125.090909090909,156.8159637451172L1158.181818181818,159.62398681640624L1191.2727272727273,155.7359802246094L1224.3636363636365,159.62398681640624L1257.4545454545455,157.57196044921875L1290.5454545454545,158.32795715332028L1323.6363636363635,161.67601318359374" style="fill: none;" fill="none"></path></g><g><path stroke="rgb(0, 119, 187)" stroke-width="2px" d="M33.09090909090909,120.01495056152345L66.18181818181819,75.9375L99.27272727272727,68.0400329589844L132.36363636363637,64.6650329589844L165.45454545454544,62.50506591796875L198.54545454545453,61.22254943847656L231.63636363636363,59.0625L264.72727272727275,58.859967041015636L297.8181818181818,58.522549438476574L330.9090909090909,57.98251647949223L364,59.60253295898434L397.09090909090907,59.0625L430.1818181818182,57.375L463.27272727272725,57.03750000000002L496.3636363636363,56.025000000000034L529.4545454545455,56.565032958984375L562.5454545454545,57.1049835205078L595.6363636363636,57.1049835205078L628.7272727272727,56.90253295898435L661.8181818181818,56.69999999999999L694.909090909091,56.565032958984375L728,54.5400329589844L761.090909090909,55.552450561523415L794.1818181818181,56.83496704101566L827.2727272727274,56.025000000000034L860.3636363636364,55.754983520507835L893.4545454545455,56.90253295898435L926.5454545454545,56.69999999999999L959.6363636363636,55.9575164794922L992.7272727272726,54.809967041015625L1025.818181818182,55.4174835205078L1058.909090909091,54.87745056152346L1092,56.42998352050779L1125.090909090909,55.6875L1158.181818181818,55.21495056152344L1191.2727272727273,54.74248352050779L1224.3636363636365,55.48504943847661L1257.4545454545455,55.28251647949219L1290.5454545454545,55.48504943847661L1323.6363636363635,55.754983520507835" style="fill: none;" fill="none"></path></g><g><path stroke="rgb(255, 112, 67)" stroke-width="2px" d="M33.09090909090909,78.73200988769531L66.18181818181819,72.89999999999998L99.27272727272727,69.98403625488282L132.36363636363637,67.28403625488284L165.45454545454544,69.76799011230469L198.54545454545453,66.20405273437501L231.63636363636363,67.71604614257814L264.72727272727275,70.74003295898439L297.8181818181818,66.6359802246094L330.9090909090909,70.63200988769535L364,67.60802307128904L397.09090909090907,67.28403625488284L430.1818181818182,70.19999999999999L463.27272727272725,65.98800659179688L496.3636363636363,64.36799011230471L529.4545454545455,65.12398681640627L562.5454545454545,74.73606262207034L595.6363636363636,70.84805603027343L628.7272727272727,66.6359802246094L661.8181818181818,65.01604614257809L694.909090909091,64.15202636718749L728,62.099999999999966L761.090909090909,67.93200988769536L794.1818181818181,66.42001647949218L827.2727272727274,65.44797363281248L860.3636363636364,67.71604614257814L893.4545454545455,64.36799011230471L926.5454545454545,64.04400329589845L959.6363636363636,65.44797363281248L992.7272727272726,63.396029663085926L1025.818181818182,69.01199340820312L1058.909090909091,66.6359802246094L1092,67.28403625488284L1125.090909090909,65.34003295898441L1158.181818181818,66.42001647949218L1191.2727272727273,65.87998352050784L1224.3636363636365,66.96004943847652L1257.4545454545455,65.23200988769531L1290.5454545454545,65.23200988769531L1323.6363636363635,64.69197692871091" style="fill: none;" fill="none"></path></g></g></g></g></g></g><g transform="translate(40, 378)" clip-path="url(#clip_1)"><clipPath id="clip_1"><rect width="1456" height="22"></rect></clipPath><g><g><line x1="0" y1="0" x2="0" y2="5" style="visibility: inherit;" fill="rgb(0, 0, 0)" stroke="rgb(204, 204, 204)" stroke-width="1px"></line><line x1="132.36363636363637" y1="0" x2="132.36363636363637" y2="5" style="visibility: inherit;" fill="rgb(0, 0, 0)" stroke="rgb(204, 204, 204)" stroke-width="1px"></line><line x1="264.72727272727275" y1="0" x2="264.72727272727275" y2="5" style="visibility: inherit;" fill="rgb(0, 0, 0)" stroke="rgb(204, 204, 204)" stroke-width="1px"></line><line x1="397.09090909090907" y1="0" x2="397.09090909090907" y2="5" style="visibility: inherit;" fill="rgb(0, 0, 0)" stroke="rgb(204, 204, 204)" stroke-width="1px"></line><line x1="529.4545454545455" y1="0" x2="529.4545454545455" y2="5" style="visibility: inherit;" fill="rgb(0, 0, 0)" stroke="rgb(204, 204, 204)" stroke-width="1px"></line><line x1="661.8181818181818" y1="0" x2="661.8181818181818" y2="5" style="visibility: inherit;" fill="rgb(0, 0, 0)" stroke="rgb(204, 204, 204)" stroke-width="1px"></line><line x1="794.1818181818181" y1="0" x2="794.1818181818181" y2="5" style="visibility: inherit;" fill="rgb(0, 0, 0)" stroke="rgb(204, 204, 204)" stroke-width="1px"></line><line x1="926.5454545454545" y1="0" x2="926.5454545454545" y2="5" style="visibility: inherit;" fill="rgb(0, 0, 0)" stroke="rgb(204, 204, 204)" stroke-width="1px"></line><line x1="1058.909090909091" y1="0" x2="1058.909090909091" y2="5" style="visibility: inherit;" fill="rgb(0, 0, 0)" stroke="rgb(204, 204, 204)" stroke-width="1px"></line><line x1="1191.2727272727273" y1="0" x2="1191.2727272727273" y2="5" style="visibility: inherit;" fill="rgb(0, 0, 0)" stroke="rgb(204, 204, 204)" stroke-width="1px"></line><line x1="1323.6363636363635" y1="0" x2="1323.6363636363635" y2="5" style="visibility: inherit;" fill="rgb(0, 0, 0)" stroke="rgb(204, 204, 204)" stroke-width="1px"></line><line x1="1456" y1="0" x2="1456" y2="5" style="visibility: inherit;" fill="rgb(0, 0, 0)" stroke="rgb(204, 204, 204)" stroke-width="1px"></line></g><g transform="translate(0, 8)"><text x="0" y="0" dx="0em" dy="0.95em" style="text-anchor: middle; visibility: hidden; font-family: &quot;Helvetica Neue&quot;, sans-serif; font-size: 12px; font-weight: 200;" fill="rgb(50, 49, 63)" stroke="none" stroke-width="1px">0</text><text x="132.36363636363637" y="0" dx="0em" dy="0.95em" style="text-anchor: middle; visibility: inherit; font-family: &quot;Helvetica Neue&quot;, sans-serif; font-size: 12px; font-weight: 200;" fill="rgb(50, 49, 63)" stroke="none" stroke-width="1px">2k</text><text x="264.72727272727275" y="0" dx="0em" dy="0.95em" style="text-anchor: middle; visibility: inherit; font-family: &quot;Helvetica Neue&quot;, sans-serif; font-size: 12px; font-weight: 200;" fill="rgb(50, 49, 63)" stroke="none" stroke-width="1px">4k</text><text x="397.09090909090907" y="0" dx="0em" dy="0.95em" style="text-anchor: middle; visibility: inherit; font-family: &quot;Helvetica Neue&quot;, sans-serif; font-size: 12px; font-weight: 200;" fill="rgb(50, 49, 63)" stroke="none" stroke-width="1px">6k</text><text x="529.4545454545455" y="0" dx="0em" dy="0.95em" style="text-anchor: middle; visibility: inherit; font-family: &quot;Helvetica Neue&quot;, sans-serif; font-size: 12px; font-weight: 200;" fill="rgb(50, 49, 63)" stroke="none" stroke-width="1px">8k</text><text x="661.8181818181818" y="0" dx="0em" dy="0.95em" style="text-anchor: middle; visibility: inherit; font-family: &quot;Helvetica Neue&quot;, sans-serif; font-size: 12px; font-weight: 200;" fill="rgb(50, 49, 63)" stroke="none" stroke-width="1px">10k</text><text x="794.1818181818181" y="0" dx="0em" dy="0.95em" style="text-anchor: middle; visibility: inherit; font-family: &quot;Helvetica Neue&quot;, sans-serif; font-size: 12px; font-weight: 200;" fill="rgb(50, 49, 63)" stroke="none" stroke-width="1px">12k</text><text x="926.5454545454545" y="0" dx="0em" dy="0.95em" style="text-anchor: middle; visibility: inherit; font-family: &quot;Helvetica Neue&quot;, sans-serif; font-size: 12px; font-weight: 200;" fill="rgb(50, 49, 63)" stroke="none" stroke-width="1px">14k</text><text x="1058.909090909091" y="0" dx="0em" dy="0.95em" style="text-anchor: middle; visibility: inherit; font-family: &quot;Helvetica Neue&quot;, sans-serif; font-size: 12px; font-weight: 200;" fill="rgb(50, 49, 63)" stroke="none" stroke-width="1px">16k</text><text x="1191.2727272727273" y="0" dx="0em" dy="0.95em" style="text-anchor: middle; visibility: inherit; font-family: &quot;Helvetica Neue&quot;, sans-serif; font-size: 12px; font-weight: 200;" fill="rgb(50, 49, 63)" stroke="none" stroke-width="1px">18k</text><text x="1323.6363636363635" y="0" dx="0em" dy="0.95em" style="text-anchor: middle; visibility: inherit; font-family: &quot;Helvetica Neue&quot;, sans-serif; font-size: 12px; font-weight: 200;" fill="rgb(50, 49, 63)" stroke="none" stroke-width="1px">20k</text><text x="1456" y="0" dx="0em" dy="0.95em" style="text-anchor: middle; visibility: hidden; font-family: &quot;Helvetica Neue&quot;, sans-serif; font-size: 12px; font-weight: 200;" fill="rgb(50, 49, 63)" stroke="none" stroke-width="1px">22k</text></g><line x1="0" y1="0" x2="1456" y2="0" fill="rgb(0, 0, 0)" stroke="rgb(204, 204, 204)" stroke-width="1px"></line></g></g></g></g></svg>